<?xml version="1.0" encoding="UTF-8" standalone="no"?>
<svg
   xmlns:sketch="http://www.bohemiancoding.com/sketch/ns"
   xmlns:dc="http://purl.org/dc/elements/1.1/"
   xmlns:cc="http://creativecommons.org/ns#"
   xmlns:rdf="http://www.w3.org/1999/02/22-rdf-syntax-ns#"
   xmlns:svg="http://www.w3.org/2000/svg"
   xmlns="http://www.w3.org/2000/svg"
   xmlns:sodipodi="http://sodipodi.sourceforge.net/DTD/sodipodi-0.dtd"
   xmlns:inkscape="http://www.inkscape.org/namespaces/inkscape"
   width="300"
   height="267.17743"
   viewBox="0 0 300 267.17743"
   version="1.1"
   id="svg2"
   inkscape:version="0.91 r13725"
   sodipodi:docname="xamagon.svg"
   inkscape:export-filename="C:\Users\anton\Documents\GitHub\XamaMe\Content\xamagon.png"
   inkscape:export-xdpi="90"
   inkscape:export-ydpi="90">
  <metadata
     id="metadata15">
    <rdf:RDF>
      <cc:Work
         rdf:about="">
        <dc:format>image/svg+xml</dc:format>
        <dc:type
           rdf:resource="http://purl.org/dc/dcmitype/StillImage" />
        <dc:title>xamagon</dc:title>
      </cc:Work>
    </rdf:RDF>
  </metadata>
  <sodipodi:namedview
     pagecolor="#ffffff"
     bordercolor="#666666"
     borderopacity="1"
     objecttolerance="10"
     gridtolerance="10"
     guidetolerance="10"
     inkscape:pageopacity="0"
     inkscape:pageshadow="2"
     inkscape:window-width="1920"
     inkscape:window-height="1017"
     id="namedview13"
     showgrid="false"
     fit-margin-top="0"
     fit-margin-left="0"
     fit-margin-right="0"
     fit-margin-bottom="0"
     inkscape:zoom="1.1625616"
     inkscape:cx="-64.076223"
     inkscape:cy="8.0155009"
     inkscape:window-x="-8"
     inkscape:window-y="-8"
     inkscape:window-maximized="1"
     inkscape:current-layer="xamagon" />
  <!-- Generator: Sketch 3.2 (9961) - http://www.bohemiancoding.com/sketch -->
  <title
     id="title4">xamagon</title>
  <desc
     id="desc6">Created with Sketch.</desc>
  <defs
     id="defs8" />
  <g
     id="Page-1"
     sketch:type="MSPage"
     style="fill:none;fill-rule:evenodd;stroke:none;stroke-width:1"
     transform="translate(-2.0321526e-8,64.17743)">
    <g
       id="xamagon"
       sketch:type="MSArtboardGroup"
       style="fill:#3498db">
      <path
         d="M 86.556967,-64.064017 C 72.28634,-64.595541 65.460023,-51.30708 59.630766,-40.596991 40.378163,-6.8614234 20.60962,26.601663 1.6819827,60.508879 c -6.1205396,14.765865 5.9731996,27.031774 12.1369123,39.33033 18.170239,31.270951 35.843728,62.852601 54.32722,93.927661 9.698267,12.71171 26.37714,8.31603 40.096885,9.11972 36.07204,-0.14127 72.16442,0.28483 108.22355,-0.21687 15.84907,-2.07612 20.37017,-18.7187 27.90994,-30.21109 17.91709,-31.41517 36.34944,-62.55819 53.94162,-94.144972 6.12026,-14.765889 -5.97308,-27.031844 -12.13689,-39.330353 -18.17025,-31.2709022 -35.84372,-62.852554 -54.32722,-93.92758 -9.69826,-12.711734 -26.37713,-8.316071 -40.09688,-9.119742 -35.06672,0 -70.13344,0 -105.200153,0 z"
         id="Logo"
         inkscape:connector-curvature="0" />
    </g>
  </g>
</svg>
